# xmcd
#
# Track frame offsets:
#  150
#  19612
#  38175
#  67092
#  86375
#  100995
#  133915
#  153955
#  174400
#  191547
#  217322
#  237002
#
# Disc length: 3307 seconds
#
# Revision: 0
# Processed by: cddbd v1.5.1PL0 Copyright (c) Steve Scherf et al.
# Submitted via: Collectorz.com_Music_Collector 6.9
#
DISCID=a10ce90c
DTITLE=Geneva Red and The Roadsters - Gettin' Cocky
DYEAR=2005
DGENRE=Blues
TTITLE0=When Ya Do Me
TTITLE1=Who's That Lurkin'
TTITLE2=A Lil' Somethin'
TTITLE3=Don't Let The Devil Catch You Nappin'
TTITLE4=Small Minds, Big Heads
TTITLE5=When I Wonder
TTITLE6=Taxin' Me
TTITLE7=Ain't No Big Thing
TTITLE8=Who's Been Talkin'
TTITLE9=Groove Verification Man
TTITLE10=Hard Livin' Alone
TTITLE11=Gettin' Cocky
EXTD=
EXTT0=
EXTT1=
EXTT2=
EXTT3=
EXTT4=
EXTT5=
EXTT6=
EXTT7=
EXTT8=
EXTT9=
EXTT10=
EXTT11=
PLAYORDER=
